<svg version="1.1" id="Ebene_1" xmlns="http://www.w3.org/2000/svg" x="0" y="0" viewBox="0 0 76.5 45.4" style="enable-background:new 0 0 76.5 45.4" xml:space="preserve"><style>.st0{fill:#333}</style><path class="st0" d="m73.5 5 1.8-3.6H37.2c-.7 0-1.4.4-1.6 1.1L22.2 31.7 8.6 1.9c-.1-.4-.4-.5-.6-.5H1.2l19.4 42.5L38.4 5h35.1z"/><path class="st0" d="M54.5 10.9c-6.3 0-12.2 2.5-15.8 6.7l-1.6 1.8h4.8l.3-.3c3-2.9 7.5-4.6 12.3-4.6 8.6 0 15.6 5.3 15.6 11.8 0 6.5-7 11.8-15.6 11.8a18 18 0 0 1-12.3-4.6l-.3-.3h-4.8l1.6 1.8c3.6 4.2 9.5 6.7 15.8 6.7 10.6 0 19.1-6.9 19.1-15.4s-8.5-15.4-19.1-15.4"/></svg>